<svg width="32" height="32" viewBox="0 0 32 32" fill="none" xmlns="http://www.w3.org/2000/svg">
<path d="M16 8H4C2.89543 8 2 8.89543 2 10V22C2 23.1046 2.89543 24 4 24H15V19.6972L16.7755 17.034L13.7755 13.034L16 9.69722V8Z" fill="#CACDD2"/>
<path d="M17 24H28C29.1046 24 30 23.1046 30 22V10C30 8.89543 29.1046 8 28 8H18V10.3028L16.2245 12.966L19.2245 16.966L17 20.3028V24Z" fill="#CACDD2"/>
<path d="M13.3945 10H5C4.44772 10 4 10.4477 4 11V19C4 19.5523 4.44772 20 5 20H13V19.0917L14.3265 17.102L11.3265 13.102L13.3945 10Z" fill="#F6F8FC"/>
<path d="M19.6056 20H27C27.5523 20 28 19.5523 28 19V11C28 10.4477 27.5523 10 27 10H20V10.9083L18.6735 12.898L21.6735 16.898L19.6056 20Z" fill="#F6F8FC"/>
<path d="M12 14H10V13C10 12.5955 9.75636 12.2309 9.38268 12.0761C9.00901 11.9213 8.57889 12.0069 8.29289 12.2929L6.29289 14.2929C5.90237 14.6834 5.90237 15.3166 6.29289 15.7071L8.29289 17.7071C8.57889 17.9931 9.00901 18.0787 9.38268 17.9239C9.75636 17.7691 10 17.4045 10 17V16H13.5L12 14Z" fill="black"/>
<path d="M21 16H25C25.5523 16 26 15.5523 26 15C26 14.4477 25.5523 14 25 14H19.5L21 16Z" fill="black"/>
</svg>
